<!--<?xml version="1.0" encoding="utf-8"?>-->
<!--&lt;!&ndash; Generator: Adobe Illustrator 19.0.0, SVG Export Plug-In . SVG Version: 6.00 Build 0)  &ndash;&gt;-->
<!--<svg version="1.1" id="Layer_1" xmlns="http://www.w3.org/2000/svg" xmlns:xlink="http://www.w3.org/1999/xlink" x="0px" y="0px"-->
<!--	 viewBox="-265 357 80 80" style="enable-background:new -265 357 80 80;" xml:space="preserve">-->
<!--<style type="text/css">-->
<!--	.st0{fill:#4B4B4D;}-->
<!--	.st1{fill:#5DC4CB;}-->
<!--	.st2{fill:#E37296;}-->
<!--	.st3{fill:#60B0E1;}-->
<!--	.st4{fill:#F7974B;}-->
<!--</style>-->
<!--<g id="XMLID_6_">-->
<!--	<polygon id="XMLID_1_" class="st0" points="-225.1,363.1 -186.5,430.6 -205.9,430.6 -234.6,380.2 	"/>-->
<!--	<polygon id="XMLID_3_" class="st1" points="-244.3,430.9 -263.5,430.9 -254.1,414.3 	"/>-->
<!--	<polygon id="XMLID_2_" class="st2" points="-234.4,414.3 -215.3,414.3 -205.9,430.6 -225.2,430.6 	"/>-->
<!--	<polygon id="XMLID_4_" class="st3" points="-244.3,397.1 -234.4,414.3 -244.3,430.9 -254.1,414.3 	"/>-->
<!--	<polygon id="XMLID_5_" class="st4" points="-234.6,380.2 -244.3,397.1 -234.4,414.3 -224.7,397.4 	"/>-->
<!--</g>-->
<!--</svg>-->
<svg width="49" height="49" viewBox="0 0 49 49" fill="none" xmlns="http://www.w3.org/2000/svg">
<path d="M24.5 13.25C24.5 19.4632 19.4632 24.5 13.25 24.5H2V13.25C2 7.03679 7.03679 2 13.25 2C19.4632 2 24.5 7.03679 24.5 13.25Z" fill="#211e3b"/>
<path d="M24.5 35.75C24.5 29.5368 29.5368 24.5 35.75 24.5H47V35.75C47 41.9632 41.9632 47 35.75 47C29.5368 47 24.5 41.9632 24.5 35.75Z" fill="#211e3b"/>
<path d="M2 35.75C2 41.9632 7.03679 47 13.25 47H24.5V35.75C24.5 29.5368 19.4632 24.5 13.25 24.5C7.03679 24.5 2 29.5368 2 35.75Z" fill="#086ad7"/>
<path d="M47 13.25C47 7.03679 41.9632 2 35.75 2H24.5V13.25C24.5 19.4632 29.5368 24.5 35.75 24.5C41.9632 24.5 47 19.4632 47 13.25Z" fill="#086ad7"/>
</svg>